<svg width="16" height="16" viewBox="0 0 16 16" fill="none" xmlns="http://www.w3.org/2000/svg">
<path d="M14.35 14.3563C14.2567 14.4483 14.131 14.4999 14 14.5001C13.8672 14.4995 13.7397 14.4481 13.6438 14.3563L10.9438 11.6501C9.80662 12.6052 8.34465 13.0845 6.86276 12.9879C5.38086 12.8913 3.99346 12.2264 2.98991 11.1317C1.98636 10.0371 1.44415 8.59729 1.47636 7.1126C1.50858 5.62791 2.11272 4.21298 3.1628 3.1629C4.21289 2.11282 5.62782 1.50867 7.11251 1.47645C8.5972 1.44424 10.037 1.98645 11.1316 2.99C12.2263 3.99355 12.8912 5.38095 12.9878 6.86285C13.0844 8.34474 12.6051 9.80671 11.65 10.9438L14.35 13.6438C14.3972 13.6904 14.4348 13.7458 14.4604 13.807C14.486 13.8681 14.4992 13.9338 14.4992 14.0001C14.4992 14.0664 14.486 14.132 14.4604 14.1932C14.4348 14.2544 14.3972 14.3098 14.35 14.3563ZM7.25001 12.0001C8.18947 12.0001 9.10783 11.7215 9.88896 11.1996C10.6701 10.6776 11.2789 9.93579 11.6384 9.06784C11.9979 8.19989 12.092 7.24483 11.9087 6.32342C11.7255 5.40201 11.2731 4.55564 10.6088 3.89134C9.94446 3.22704 9.09809 2.77465 8.17668 2.59137C7.25527 2.40809 6.30021 2.50215 5.43226 2.86167C4.56431 3.22119 3.82246 3.83001 3.30052 4.61114C2.77859 5.39227 2.50001 6.31064 2.50001 7.2501C2.50166 8.50937 3.00264 9.71659 3.89307 10.607C4.78351 11.4975 5.99073 11.9984 7.25001 12.0001Z" fill="#1C1C1C" fill-opacity="0.2"/>
</svg>
