<svg width="20" height="20" viewBox="0 0 20 20" fill="none" xmlns="http://www.w3.org/2000/svg">
<path d="M14.3852 11.539C14.2995 11.6143 14.2358 11.7113 14.2009 11.8198C14.1659 11.9284 14.1611 12.0443 14.1867 12.1554L15.243 16.7289C15.2709 16.8483 15.263 16.9733 15.2204 17.0883C15.1777 17.2034 15.1022 17.3033 15.0032 17.3757C14.9041 17.4481 14.786 17.4897 14.6634 17.4954C14.5409 17.5011 14.4194 17.4706 14.3141 17.4078L10.3219 14.9859C10.2249 14.9269 10.1135 14.8957 10 14.8957C9.88648 14.8957 9.77513 14.9269 9.67813 14.9859L5.68594 17.4078C5.58061 17.4706 5.4591 17.5011 5.33657 17.4954C5.21403 17.4897 5.09588 17.4481 4.99685 17.3757C4.89781 17.3033 4.82226 17.2034 4.77962 17.0883C4.73698 16.9733 4.72912 16.8483 4.75704 16.7289L5.81329 12.1554C5.83896 12.0443 5.83407 11.9284 5.79913 11.8198C5.76419 11.7113 5.70051 11.6143 5.61485 11.539L2.09063 8.46479C1.99641 8.38471 1.92806 8.27849 1.89424 8.15955C1.86041 8.04062 1.86262 7.91432 1.90059 7.79664C1.93856 7.67896 2.01059 7.57519 2.10755 7.49846C2.20452 7.42173 2.32206 7.37548 2.44532 7.36558L7.09063 6.96401C7.20396 6.95392 7.31239 6.91307 7.40422 6.84589C7.49605 6.7787 7.5678 6.68772 7.61172 6.58276L9.42657 2.25776C9.47504 2.14594 9.55515 2.05074 9.65703 1.98386C9.75892 1.91698 9.87813 1.88135 10 1.88135C10.1219 1.88135 10.2411 1.91698 10.343 1.98386C10.4449 2.05074 10.525 2.14594 10.5734 2.25776L12.3883 6.58276C12.4322 6.68772 12.504 6.7787 12.5958 6.84589C12.6876 6.91307 12.796 6.95392 12.9094 6.96401L17.5547 7.36558C17.6779 7.37548 17.7955 7.42173 17.8925 7.49846C17.9894 7.57519 18.0615 7.67896 18.0994 7.79664C18.1374 7.91432 18.1396 8.04062 18.1058 8.15955C18.0719 8.27849 18.0036 8.38471 17.9094 8.46479L14.3852 11.539Z" fill="#1C1C1C" fill-opacity="0.1"/>
<path d="M18.6875 7.60087C18.6118 7.36758 18.4691 7.16171 18.2773 7.0089C18.0855 6.85609 17.8529 6.76309 17.6086 6.74149L12.9687 6.34149L11.15 2.01649C11.0553 1.78955 10.8956 1.5957 10.6909 1.45935C10.4863 1.323 10.2459 1.25024 9.99999 1.25024C9.75408 1.25024 9.51368 1.323 9.30904 1.45935C9.1044 1.5957 8.94468 1.78955 8.84999 2.01649L7.03671 6.34149L2.39139 6.74384C2.14611 6.76445 1.91237 6.85702 1.71949 7.00994C1.5266 7.16287 1.38316 7.36933 1.30715 7.60345C1.23114 7.83757 1.22595 8.08892 1.29222 8.32598C1.35849 8.56304 1.49327 8.77526 1.67967 8.93603L5.20389 12.0157L4.14764 16.5892C4.09179 16.8285 4.10773 17.079 4.19346 17.3093C4.27919 17.5396 4.43092 17.7396 4.62967 17.8841C4.82842 18.0287 5.06537 18.1114 5.3109 18.1221C5.55643 18.1327 5.79965 18.0707 6.01014 17.9438L9.99452 15.522L13.9875 17.9438C14.198 18.0707 14.4412 18.1327 14.6867 18.1221C14.9323 18.1114 15.1692 18.0287 15.368 17.8841C15.5667 17.7396 15.7184 17.5396 15.8042 17.3093C15.8899 17.079 15.9058 16.8285 15.85 16.5892L14.7945 12.011L18.318 8.93603C18.5043 8.77471 18.6389 8.56189 18.7046 8.32432C18.7704 8.08676 18.7644 7.83506 18.6875 7.60087ZM17.4984 7.99149L13.975 11.0665C13.8035 11.2157 13.6759 11.4088 13.606 11.625C13.5361 11.8413 13.5264 12.0725 13.5781 12.2938L14.6367 16.8751L10.6469 14.4532C10.4522 14.3347 10.2287 14.272 10.0008 14.272C9.77285 14.272 9.54933 14.3347 9.35467 14.4532L5.3703 16.8751L6.42186 12.297C6.47354 12.0756 6.4639 11.8444 6.39397 11.6281C6.32404 11.4119 6.19647 11.2188 6.02499 11.0696L2.49999 7.99618C2.4997 7.99385 2.4997 7.99149 2.49999 7.98915L7.14374 7.58759C7.37046 7.5676 7.58742 7.4861 7.77122 7.35186C7.95502 7.21763 8.09868 7.03576 8.18671 6.82587L9.99999 2.50634L11.8125 6.82587C11.9005 7.03576 12.0442 7.21763 12.228 7.35186C12.4118 7.4861 12.6287 7.5676 12.8555 7.58759L17.5 7.98915C17.5 7.98915 17.5 7.99384 17.5 7.99462L17.4984 7.99149Z" fill="#1C1C1C"/>
</svg>
